<svg width="194" height="74" viewBox="0 0 194 74" fill="none" xmlns="http://www.w3.org/2000/svg">
<g clip-path="url(#clip0)">
<path d="M29.9529 19.3881C8.22595 19.3881 3.91186 28.8502 4.89538 41.3561C6.01302 55.2294 29.9529 63.4564 29.9529 63.4564C29.9529 63.4564 53.7586 55.3618 54.8763 41.3561C55.9939 28.9605 51.8139 19.3881 29.9529 19.3881Z" fill="#010101"/>
<path d="M28.2764 67.3825C23.4035 65.6621 18.7988 63.3241 14.4847 60.6333C10.5953 58.185 7.51062 55.4721 5.16358 52.7812C2.23536 49.2081 0.558898 45.5247 0.134195 41.7311C-0.558742 32.8865 1.25184 26.6226 5.99063 22.2113C10.9977 17.5354 18.7988 15.1974 29.9528 15.1974C41.0845 15.1974 48.8857 17.5354 53.915 22.1893C58.6538 26.6005 60.4644 32.8645 59.7715 41.709C59.5032 45.5247 57.8268 49.3184 54.7644 52.7592C52.3951 55.5824 49.3327 58.163 45.4433 60.6112C41.1292 63.3021 36.5246 65.5297 31.6516 67.3604L29.9752 67.978L28.2764 67.3825Z" fill="white"/>
<path d="M31.7633 67.3824C36.6362 65.662 41.2409 63.3241 45.5549 60.6332C49.4443 58.185 52.529 55.4721 54.8761 52.7812C57.8043 49.2302 59.4807 45.5468 59.8831 41.7311C60.576 32.8865 58.7655 26.6225 54.0267 22.2113C49.0196 17.5574 41.2185 15.2195 30.0645 15.2195V68L31.7633 67.3824Z" fill="#F8B85D"/>
<path d="M28.9694 65.7944C27.9858 65.4195 3.48715 56.9499 2.23539 41.6208C1.54245 33.2836 3.21891 27.5048 7.533 23.4465C12.1153 19.1455 19.4918 16.9178 29.9529 16.9178C40.414 16.9178 47.7681 19.0132 52.3727 23.4244C56.6868 27.4828 58.3633 33.2394 57.6704 41.5987C56.4186 56.8175 31.8976 65.4194 30.9364 65.7723L29.9529 66.1473L28.9694 65.7944Z" fill="#054C24"/>
<path d="M29.9529 19.3881C8.22595 19.3881 3.91186 28.8502 4.89538 41.3561C6.01302 55.2294 29.9529 63.4564 29.9529 63.4564C29.9529 63.4564 53.7586 55.3618 54.8763 41.3561C55.9939 28.9605 51.8139 19.3881 29.9529 19.3881Z" fill="#BF5B34"/>
<path d="M29.9527 19.3881C14.2163 19.3881 11.154 26.5123 11.981 35.8421C12.8081 46.1644 29.9527 52.296 29.9527 52.296C29.9527 52.296 47.2314 46.1644 47.9243 35.8421C48.7514 26.4902 45.6891 19.3881 29.9527 19.3881Z" fill="#D36D3A"/>
<path d="M27.8516 54.7442C37.1727 54.9868 38.5809 58.8026 31.4727 62.9712C32.0315 63.9637 33.0151 63.5888 33.0151 63.5888L47.3656 55.2515C47.4997 55.0971 34.6915 53.0238 27.8516 54.7442Z" fill="#054C24"/>
<path d="M57.1114 31.6514C57.2456 34.3422 56.8432 37.0551 56.2844 39.6357C54.3397 41.2238 52.2385 42.084 49.8691 42.084C41.9339 42.084 35.2504 31.6514 34.8257 19.0132C34.6916 14.0946 35.5186 9.68339 36.9045 6C47.9021 8.20562 56.6867 18.8808 57.1114 31.6514Z" fill="#054C24"/>
<path d="M56.4183 34.8496C55.9936 33.7467 57.2454 32.7542 56.6866 31.7837C56.5525 27.3725 55.8595 23.0715 53.4901 19.3882C51.2548 16.0797 48.3266 13.3668 44.9961 11.6464L37.7537 21.7041L30.3773 22.1893L26.8903 22.6745L5.72217 39.8563L5.85628 40.7165C5.85628 40.9591 5.85628 41.3341 5.9904 41.709V41.9517C6.81746 47.1128 10.1704 51.524 14.9092 54.3472C17.5468 55.825 20.2068 56.5529 22.8444 56.5529C24.2303 56.5529 25.6385 56.3102 27.0244 55.825L28.142 55.5824C32.322 54.3472 34.8255 55.9573 38.3126 55.5824C41.3749 55.3398 43.0514 57.5454 45.4208 57.5454C47.3655 57.5454 51.5454 52.8915 51.5454 52.8915H50.1596C56.2619 48.2377 58.7654 41.2238 56.4183 34.8496Z" fill="#054C24"/>
<path d="M56.5526 34.9818C53.7585 26.9975 43.4539 22.8289 33.5739 25.5197C23.694 28.2106 18.1058 36.9448 20.8999 44.9071C22.1516 48.4582 28.0081 50.4212 31.4951 52.1416C33.0375 52.8694 44.9962 58.6481 50.9868 50.7961C56.262 46.8701 58.6314 40.7385 56.5526 34.9818Z" fill="#D36D3A"/>
<path d="M51.5233 27.3504C52.0821 29.6884 52.3504 31.894 52.2163 34.232C50.8304 35.82 49.0198 36.9228 46.9186 37.1875C39.9446 38.18 32.0093 30.3059 29.3717 19.6307C28.3882 15.5724 28.254 11.6464 28.947 8.20563C39.1399 8.69086 48.8857 16.5649 51.5233 27.3504Z" fill="#054C24"/>
<path d="M54.4516 31.2985C52.5069 21.8363 36.9046 19.5204 37.1729 22.3436L27.8518 23.6891L8.36011 39.5254C8.91893 45.5468 13.926 49.7154 19.9165 52.1636C22.1518 51.0608 23.5377 50.8182 23.5377 50.8182L31.3388 50.0903C31.3388 50.0903 48.3269 52.0533 51.3893 49.2302C54.8763 46.032 56.821 41.731 56.3963 37.3198C56.2622 35.0921 55.5692 33.1291 54.4516 31.2985Z" fill="#D36D3A"/>
<path d="M37.0386 30.9235H36.4797C38.8491 30.7912 41.3526 30.9235 43.722 31.1661C41.375 30.9235 39.1397 30.7912 37.0386 30.9235Z" fill="#D36D3A"/>
<path d="M55.435 33.1291C55.435 35.7097 55.0103 38.1579 54.3174 40.6282C52.3727 41.9737 50.2715 42.8338 47.9021 42.7236C40.2351 42.3486 33.9763 32.4013 33.9763 20.513C33.9763 15.9694 34.9598 11.8008 36.4798 8.35999C47.2092 10.7862 55.435 21.1085 55.435 33.1291Z" fill="#D36D3A"/>
<path d="M20.207 35.9523C20.207 35.9523 22.8447 34.6069 35.8093 40.0106C38.8716 41.2458 50.9868 34.9818 42.2245 27.99C35.1163 28.8502 32.6128 27.2621 32.6128 27.2621L20.207 35.9523Z" fill="#BF5B34"/>
<path d="M45.2644 27.6151C45.2644 27.6151 54.8761 35.3568 45.2644 41.0032C49.7126 40.7606 55.1443 39.1726 53.1996 34.254C51.2549 29.3355 45.2644 27.6151 45.2644 27.6151Z" fill="#BF5B34"/>
<path d="M36.6361 30.1736C37.7537 32.9968 36.2114 36.0626 33.0149 37.0551C29.8185 38.0477 26.3314 36.6802 25.2138 33.857V33.7246C25.0797 33.482 25.0797 33.2394 24.9456 32.9968L35.5408 28.3209C35.9431 28.9605 36.3455 29.5781 36.6361 30.1736Z" fill="#054C24"/>
<path d="M14.6188 35.2245L23.6717 47.3775L8.49414 39.6357L14.6188 35.2245Z" fill="#F59E56"/>
<path d="M31.0705 32.9968C31.6964 32.9968 32.1882 33.4379 32.1882 33.9893C32.1882 34.5407 31.6964 34.9818 31.0705 34.9818C30.4446 34.9818 29.9529 34.5407 29.9529 33.9893C29.9529 33.4379 30.4446 32.9968 31.0705 32.9968Z" fill="white"/>
<path d="M40.1232 48.7229C40.1232 48.7229 43.6103 49.4507 48.6173 48.3479C43.8785 52.2739 39.2962 54.2369 31.6292 52.1636C36.6362 50.8182 40.1232 48.7229 40.1232 48.7229Z" fill="#BF5B34"/>
<path d="M38.8491 49.2081C38.8491 49.2081 41.2185 51.5461 45.9573 53.1341C39.5421 53.9943 31.4727 54.2369 29.6621 47.8627C34.8256 49.2081 38.8491 49.2081 38.8491 49.2081Z" fill="#BF5B34"/>
<path d="M28.8352 32.6439C29.1481 32.6439 29.394 32.8645 29.394 33.1292C29.394 33.3938 29.1481 33.6144 28.8352 33.6144C28.5222 33.6144 28.2764 33.3938 28.2764 33.1292C28.2764 32.8645 28.5222 32.6439 28.8352 32.6439Z" fill="white"/>
<path d="M11.4224 38.4005L8.36011 40.1209L8.49422 41.2237C9.32128 46.0099 12.5401 49.9359 16.8542 52.3842C18.5306 53.3767 27.2929 52.8694 28.7012 52.1415C22.5765 49.6933 11.4224 38.4005 11.4224 38.4005Z" fill="#F59E56"/>
<path d="M49.8691 27.2402C48.6173 21.8364 44.4373 17.5354 39.4303 16.3223C38.4468 18.2853 38.0444 20.7336 38.0444 23.3141V23.7994C42.2021 23.9317 46.382 25.0345 49.8691 27.2402Z" fill="#054C24"/>
<path d="M11.8471 37.9153L8.36011 39.5034L8.49422 40.9812C9.32128 45.635 12.2495 49.5831 16.4295 52.0313C22.5541 55.4721 27.427 53.5091 28.8353 52.1637C22.5765 49.6934 11.8471 37.9153 11.8471 37.9153Z" fill="#F59E56"/>
<path d="M33.1493 27.3504L30.5117 26.8652L20.207 35.9523L33.1493 27.3504Z" fill="#F59E56"/>
<path d="M34.6915 43.1868C30.3774 44.7748 27.7174 46.01 22.7104 44.9072C18.821 44.047 14.2163 40.6062 11.9811 37.9153C11.5564 38.2903 10.9975 38.6432 10.5952 39.0182C4.3364 47.0025 23.1351 53.0018 25.0798 53.1341C26.6221 53.2665 24.8116 50.9285 27.8739 52.6489C30.668 50.9285 37.6197 52.5166 40.9726 50.2007C45.2644 47.1348 42.202 40.4959 34.6915 43.1868Z" fill="#F59E56"/>
<path d="M16.161 42.7015C16.6304 42.7015 16.9881 43.0324 16.9881 43.4294C16.9881 43.8264 16.6081 44.1572 16.161 44.1572C15.6916 44.1572 15.334 43.8264 15.334 43.4294C15.334 43.0324 15.6916 42.7015 16.161 42.7015Z" fill="#054C24"/>
<path d="M19.9164 40.7385C20.3858 40.7385 20.7435 41.0694 20.7435 41.4664C20.7435 41.8634 20.3635 42.1942 19.9164 42.1942C19.447 42.1942 19.0894 41.8634 19.0894 41.4664C19.0894 41.0694 19.4694 40.7385 19.9164 40.7385Z" fill="#054C24"/>
<path d="M16.5858 39.6357C17.0552 39.6357 17.4129 39.9666 17.4129 40.3636C17.4129 40.7606 17.0329 41.0914 16.5858 41.0914C16.1164 41.0914 15.7588 40.7606 15.7588 40.3636C15.7364 39.9666 16.1164 39.6357 16.5858 39.6357Z" fill="#054C24"/>
<path d="M37.3293 22.3216C37.061 22.3216 29.1034 24.5272 29.1034 24.5272L12.1153 37.783L8.49414 39.5034L27.9858 23.667L37.3293 22.3216Z" fill="#F8B85D"/>
<path d="M36.6363 20.7336L43.0292 21.1085L37.888 23.3142L43.0292 22.9392L39.5645 25.1448L35.7869 24.042L36.6363 20.7336Z" fill="#D36D3A"/>
<path d="M8.62832 43.5617C9.18714 44.2896 10.0142 44.7969 10.8636 44.6645L11.6907 38.6432L7.80127 40.3636L7.93539 41.2238C8.09186 41.9737 8.22597 42.8339 8.62832 43.5617Z" fill="#054C24"/>
<path d="M45.9572 47.6201C48.7513 46.1423 52.7748 45.4144 54.183 44.6645C57.2454 43.1868 57.536 42.084 57.6701 38.1579C57.8042 32.0263 52.2383 28.8282 45.2866 27.593C49.8913 29.6884 53.6466 31.519 53.9148 37.5404C54.183 42.9441 49.8689 45.8997 45.9572 47.6201Z" fill="#054C24"/>
<path d="M20.207 35.9523L32.4564 27.2401L34.6916 29.6884L20.207 35.9523Z" fill="#054C24"/>
<path d="M42.2021 27.968L32.4563 27.2401L34.6916 29.6884L42.2021 27.968Z" fill="#054C24"/>
<path d="M45.9573 47.6201L55.8596 46.385L57.1113 43.5618L57.3796 38.7756L53.3337 43.1868L49.0196 46.2747L45.9573 47.6201Z" fill="#054C24"/>
<path d="M28.4104 51.7887C28.4104 51.7887 33.708 46.1423 35.228 45.5247C36.2115 45.1498 37.1727 44.9072 38.1562 45.1498C40.235 45.635 40.5256 48.8332 35.7868 49.0758C32.3221 49.3405 28.4104 51.7887 28.4104 51.7887Z" fill="#054C24"/>
<path d="M55.8597 44.9071C55.8597 46.8701 50.6962 51.4137 46.3821 51.546C47.3656 52.6488 48.6174 53.1341 49.8691 53.1341C58.2291 46.3849 55.8597 44.1793 55.8597 44.9071Z" fill="#054C24"/>
<path d="M28.4105 51.7887C27.9858 52.1637 28.4105 53.3768 30.914 51.9211C32.0317 51.7887 33.1493 51.7887 33.1493 51.7887L33.574 50.7962C33.574 50.8183 29.2599 50.9285 28.4105 51.7887Z" fill="#F59E56"/>
<path d="M34.6915 50.8182C34.6915 50.8182 29.528 52.0533 28.5668 52.0533C27.8739 53.1561 30.9362 54.2589 31.495 52.1857L34.6915 50.8182Z" fill="#F59E56"/>
<path d="M29.9529 51.1932L36.9717 46.3849H40.1681L40.0563 48.37L29.9529 51.1932Z" fill="#F59E56"/>
<g opacity="0.11">
<g opacity="0.11">
<path opacity="0.11" d="M42.2244 23.7552C42.0903 23.8655 41.9561 23.9537 41.7997 24.0199C41.6432 24.1081 41.4867 24.1522 41.3303 24.2184L41.0844 24.2846L40.8161 24.3287C40.7267 24.3508 40.6373 24.3508 40.5479 24.3508C40.4585 24.3508 40.3691 24.3508 40.2797 24.3508C40.1903 24.3508 40.1009 24.3508 40.0114 24.3287C39.922 24.3066 39.8326 24.3066 39.7432 24.2846L39.475 24.1964C39.3856 24.1743 39.3185 24.1302 39.2291 24.0861C39.1397 24.042 39.0726 24.0199 38.9832 23.9537L38.7597 23.7993C38.6703 23.7552 38.6256 23.6891 38.5585 23.645L38.3573 23.4685L38.5809 23.5347C38.4915 23.5347 38.402 23.5567 38.3126 23.5567C38.2232 23.5567 38.1338 23.5567 38.0444 23.5567C37.8656 23.5567 37.7091 23.5347 37.5303 23.4906C37.3515 23.4465 37.195 23.4244 37.0385 23.3582C36.9491 23.3362 36.8821 23.2921 36.7926 23.27C36.7032 23.2479 36.6362 23.2038 36.5691 23.1597C36.5021 23.1156 36.4126 23.0936 36.3456 23.0494C36.2785 23.0053 36.2115 22.9612 36.1221 22.9171C35.9879 22.8068 35.8538 22.7186 35.7421 22.5863C35.675 22.5201 35.6303 22.476 35.5632 22.4098L35.4068 22.2113C35.295 22.079 35.2503 21.9246 35.1609 21.7922L35.3397 21.9687C35.4068 22.0349 35.4515 22.079 35.5185 22.1231L35.6974 22.2775C35.7644 22.3216 35.8315 22.3657 35.8985 22.4098C35.9656 22.4539 36.0326 22.498 36.0997 22.5421L36.3009 22.6524C36.3679 22.6745 36.435 22.7186 36.5021 22.7407C36.5691 22.7848 36.6362 22.7848 36.7256 22.8289C36.7926 22.8509 36.8597 22.873 36.9491 22.895C37.0162 22.9171 37.0832 22.9392 37.1726 22.9612C37.3291 23.0053 37.4632 23.0274 37.6197 23.0494C37.7762 23.0715 37.9326 23.0936 38.0668 23.0936C38.1338 23.0936 38.2232 23.0936 38.2903 23.0936C38.3573 23.0936 38.4468 23.0936 38.5138 23.0715L38.6256 23.0494L38.715 23.1377L38.8938 23.2921C38.9609 23.3362 39.0056 23.4023 39.0726 23.4465L39.2515 23.5788C39.3185 23.6229 39.3856 23.645 39.4526 23.6891C39.5197 23.7332 39.5867 23.7773 39.6538 23.7993L39.8773 23.8876C39.9444 23.9096 40.0338 23.9317 40.1009 23.9537C40.1679 23.9758 40.2573 23.9979 40.3244 23.9979C40.3914 24.0199 40.4809 24.0199 40.5479 24.0199C40.615 24.0199 40.7044 24.042 40.7714 24.042H41.0173L41.2632 24.0199C41.4197 23.9979 41.5761 23.9758 41.7326 23.9317C41.9114 23.8435 42.0679 23.7993 42.2244 23.7552Z" fill="#5D5D5D"/>
</g>
</g>
<path d="M107.651 42.5912C107.651 43.694 107.517 44.7968 106.958 45.7894C106.533 46.6496 105.975 47.5097 105.282 48.2376C104.589 48.8552 103.605 49.4727 102.644 49.8256C101.526 50.2006 100.409 50.4432 99.2911 50.4432C97.7488 50.4432 96.497 50.2006 95.5359 49.8256C94.5523 49.4507 93.5912 48.8331 92.8982 48.1053C92.2053 47.3774 91.7806 46.5172 91.5123 45.5247C91.2441 44.5322 91.0876 43.5617 91.0876 42.4589V26.6225H96.5194V42.5912C96.5194 43.4514 96.7876 44.1793 97.2123 44.7968C97.637 45.4144 98.4641 45.657 99.4476 45.657C100.141 45.657 100.99 45.4144 101.392 44.9292C101.951 44.4439 102.219 43.8264 102.219 42.9662V26.4902H107.651V42.5912Z" fill="white"/>
<path d="M129.803 44.4219V49.8257H124.93L120.191 42.084L117.397 37.0552L117.263 37.1875V49.958H111.831L111.965 26.38H116.704L120.884 33.3718L124.237 39.0182H124.371L124.505 26.2476H129.803V44.4219Z" fill="white"/>
<path d="M147.216 26.9975C145.964 26.3799 144.578 26.1373 142.768 26.1373L134.117 26.2476L133.983 49.8257L142.052 49.6934C142.879 49.6934 143.729 49.561 144.556 49.4507C145.249 49.3184 146.098 49.0758 146.791 48.7229C147.484 48.3479 148.043 47.995 148.602 47.4877C149.16 46.8702 149.585 46.2526 149.853 45.5247C150.278 44.5322 150.546 43.3191 150.546 41.8413V36.5699C150.546 35.0921 150.546 33.8791 150.412 32.6439C150.412 31.5411 150.144 30.5486 149.853 29.6884C149.429 28.4753 148.468 27.4828 147.216 26.9975ZM145.271 35.9523V41.5987C145.271 42.7015 145.003 43.5617 144.578 44.1793C144.153 44.7969 143.192 45.1718 141.784 45.1718H139.549V30.6809H141.784C142.611 30.6809 143.17 30.8132 143.595 31.0559C144.019 31.2985 144.422 31.7837 144.578 32.1587C144.757 32.4895 144.891 32.8645 144.958 33.2835C145.025 33.7026 145.115 34.0996 145.182 34.5187C145.271 34.9819 145.271 35.445 145.271 35.9523Z" fill="#F8B85D"/>
<path d="M187.048 25.7624C185.796 27.3504 184.969 28.7179 184.12 29.6884C183.427 30.6809 182.868 31.5191 182.443 32.1366C182.019 32.7542 181.751 33.2394 181.46 33.6144C181.192 33.9894 181.035 34.3423 180.767 34.6069H180.633V25.8947H175.201V49.4507H180.633V43.1868L182.868 40.121C183.695 41.709 184.545 43.3191 185.372 44.7748C186.199 46.3629 187.048 47.8406 187.875 49.4287H194C192.748 47.0907 191.362 44.7748 190.11 42.5472C188.859 40.2092 187.607 37.8933 186.221 35.5553L193.463 25.8506L187.048 25.7624Z" fill="#F8B85D"/>
<path d="M165.589 42.3266C165.589 43.0545 165.321 43.8044 164.762 44.2896C164.204 44.7748 163.511 45.0175 162.818 45.0175C161.7 45.0175 161.007 44.7748 160.582 44.1573C160.158 43.5397 159.889 42.8118 159.889 41.9516V26.005H154.458V41.8414C154.458 42.8339 154.592 43.9367 154.882 44.9072C155.151 45.8997 155.71 46.7378 156.425 47.4878C157.118 48.2156 157.967 48.8332 159.062 49.2081C160.18 49.5831 161.432 49.8257 162.818 49.8257C163.935 49.8257 165.053 49.5831 166.171 49.2081C167.154 48.8332 167.981 48.3479 168.808 47.6201C169.501 46.8922 170.194 46.1423 170.485 45.1719C170.909 44.1793 171.178 43.0765 171.178 41.9737V25.7624H165.746L165.589 42.3266Z" fill="#F8B85D"/>
<path d="M88.5843 31.1661H78.9726V36.195L87.3325 36.0847V40.6282H78.9726L78.8385 50.3109H73.4067L73.5409 26.7549L88.7184 26.6226L88.5843 31.1661Z" fill="white"/>
<path d="M37.0386 46.3849L33.4622 45.9438C33.4622 45.9438 34.1327 45.2821 35.0269 45.0615C35.921 44.841 36.8151 44.841 37.7092 45.0615C38.6033 45.2821 37.0386 46.3849 37.0386 46.3849Z" fill="#054C24"/>
</g>
<defs>
<clipPath id="clip0">
<rect width="194" height="74" fill="white"/>
</clipPath>
</defs>
</svg>
