<svg width="190" height="74" viewBox="0 0 190 74" fill="none" xmlns="http://www.w3.org/2000/svg">
<path d="M119.884 57.4643C111.535 57.4643 104.708 50.6504 104.708 42.2467V18.4956L112.215 16.2568V42.2467C112.215 46.4972 115.645 49.9366 119.884 49.9366C124.123 49.9366 127.553 46.4972 127.553 42.2467V18.4956L135.06 16.2568V42.2467C135.027 50.618 128.232 57.4643 119.884 57.4643Z" fill="#00243B"/>
<path d="M73.255 38.0287L104.772 38.2883L104.707 43.1877L73.2227 42.9282L73.255 38.0287Z" fill="url(#paint0_linear)"/>
<path d="M43.0324 29.4302L73.2875 29.6898L73.2551 34.5568L43 34.3296L43.0324 29.4302Z" fill="url(#paint1_linear)"/>
<path d="M73.255 29.4302L104.74 29.6898L104.707 34.5568L73.2227 34.3296L73.255 29.4302Z" fill="url(#paint2_linear)"/>
<path d="M112.215 29.3978L146.968 29.6898L146.935 34.5893L112.182 34.3297L112.215 29.3978Z" fill="url(#paint3_linear)"/>
<path d="M43.0324 38.0287L73.2875 38.2883L73.2551 43.1553L43 42.9282L43.0324 38.0287Z" fill="url(#paint4_linear)"/>
<path d="M112.215 37.9962L147 38.2882L146.935 43.1877L112.182 42.9281L112.215 37.9962Z" fill="url(#paint5_linear)"/>
<path d="M55.7815 56.9451V18.5605L63.2887 16.3217V56.9451H55.7815Z" fill="#00243B"/>
<path d="M87.9782 57.4643C87.5899 57.4643 87.1692 57.4643 86.7809 57.4318C79.112 56.9127 70.9253 51.1372 70.9253 36.5361C70.9253 21.9026 79.112 16.1595 86.7809 15.6403C93.6409 15.1861 98.2682 19.9233 99.9508 21.9674L94.1586 26.7047C92.9937 25.277 90.5345 22.876 87.2663 23.1031C81.6036 23.4924 78.3677 28.3919 78.3677 36.5361C78.3677 44.7127 81.6036 49.6122 87.2663 49.9691C92.3142 50.2935 96.4237 46.8866 96.4885 46.8542L101.342 52.5324C101.116 52.7271 95.5177 57.4643 87.9782 57.4643Z" fill="#00243B"/>
<defs>
<linearGradient id="paint0_linear" x1="46.2142" y1="40.2555" x2="140.21" y2="41.0075" gradientUnits="userSpaceOnUse">
<stop stop-color="#74C59C"/>
<stop offset="0.1496" stop-color="#6CC5A2"/>
<stop offset="0.3816" stop-color="#56C4B2"/>
<stop offset="0.6668" stop-color="#33C2CD"/>
<stop offset="0.9917" stop-color="#01C0F1"/>
<stop offset="1" stop-color="#00C0F2"/>
</linearGradient>
<linearGradient id="paint1_linear" x1="43.3825" y1="31.8759" x2="147.472" y2="32.7085" gradientUnits="userSpaceOnUse">
<stop stop-color="#74C59C"/>
<stop offset="0.1496" stop-color="#6CC5A2"/>
<stop offset="0.3816" stop-color="#56C4B2"/>
<stop offset="0.6668" stop-color="#33C2CD"/>
<stop offset="0.9917" stop-color="#01C0F1"/>
<stop offset="1" stop-color="#00C0F2"/>
</linearGradient>
<linearGradient id="paint2_linear" x1="46.2659" y1="31.6525" x2="140.308" y2="32.4048" gradientUnits="userSpaceOnUse">
<stop stop-color="#74C59C"/>
<stop offset="0.1496" stop-color="#6CC5A2"/>
<stop offset="0.3816" stop-color="#56C4B2"/>
<stop offset="0.6668" stop-color="#33C2CD"/>
<stop offset="0.9917" stop-color="#01C0F1"/>
<stop offset="1" stop-color="#00C0F2"/>
</linearGradient>
<linearGradient id="paint3_linear" x1="38.0552" y1="31.2604" x2="145.147" y2="32.1171" gradientUnits="userSpaceOnUse">
<stop stop-color="#74C59C"/>
<stop offset="0.1496" stop-color="#6CC5A2"/>
<stop offset="0.3816" stop-color="#56C4B2"/>
<stop offset="0.6668" stop-color="#33C2CD"/>
<stop offset="0.9917" stop-color="#01C0F1"/>
<stop offset="1" stop-color="#00C0F2"/>
</linearGradient>
<linearGradient id="paint4_linear" x1="43.3097" y1="40.4826" x2="147.402" y2="41.3153" gradientUnits="userSpaceOnUse">
<stop stop-color="#74C59C"/>
<stop offset="0.1496" stop-color="#6CC5A2"/>
<stop offset="0.3816" stop-color="#56C4B2"/>
<stop offset="0.6668" stop-color="#33C2CD"/>
<stop offset="0.9917" stop-color="#01C0F1"/>
<stop offset="1" stop-color="#00C0F2"/>
</linearGradient>
<linearGradient id="paint5_linear" x1="37.9639" y1="39.8628" x2="145.08" y2="40.7197" gradientUnits="userSpaceOnUse">
<stop stop-color="#74C59C"/>
<stop offset="0.1496" stop-color="#6CC5A2"/>
<stop offset="0.3816" stop-color="#56C4B2"/>
<stop offset="0.6668" stop-color="#33C2CD"/>
<stop offset="0.9917" stop-color="#01C0F1"/>
<stop offset="1" stop-color="#00C0F2"/>
</linearGradient>
</defs>
</svg>
