<svg width="190" height="74" viewBox="0 0 190 74" fill="none" xmlns="http://www.w3.org/2000/svg">
<path d="M68.6175 46.5193H69.3166L75.1972 52.9557H75.3617V46.5193H75.9374V55.5794H75.6495L69.2344 48.4461V55.3745H68.5764V46.5193H68.6175ZM103.942 55.3745H104.6V48.4461L111.015 55.5794H111.303V46.5193H110.727V52.9557H110.563L104.682 46.5193H103.983V55.3745H103.942ZM87.1227 46.5602V55.3335H92.9621V54.8825H88.5209V46.5602H87.1227ZM77.8701 55.3335L79.3094 52.3817H83.1338L84.532 55.3335H85.8479V55.1285L81.6945 46.4373H81.4478L77.171 55.3745H77.8701V55.3335ZM79.515 51.8898L81.2011 48.4051L82.846 51.8898H79.515ZM94.1958 46.5602C94.1958 46.5602 94.1958 51.3158 94.1958 52.0947C94.1958 53.9806 95.3884 55.5384 97.8146 55.5384C98.8016 55.5384 97.9791 55.5384 98.4314 55.5384C99.8707 55.5384 101.845 54.5955 101.845 52.0128C101.845 50.3319 101.845 46.5602 101.845 46.5602H101.228C101.228 46.5602 101.228 51.3568 101.228 52.0128C101.228 53.7756 100.241 55.1285 98.4726 55.1285C96.7043 55.1285 95.6351 54.0626 95.6351 51.9308C95.6351 51.2338 95.6351 46.5602 95.6351 46.5602H94.1958ZM113.4 46.5602C113.4 46.5602 113.4 51.3158 113.4 52.0947C113.4 53.9806 114.593 55.5384 117.019 55.5384C118.006 55.5384 117.183 55.5384 117.636 55.5384C119.075 55.5384 121.049 54.5955 121.049 52.0128C121.049 50.3319 121.049 46.5602 121.049 46.5602H120.432C120.432 46.5602 120.432 51.3568 120.432 52.0128C120.432 53.7756 119.445 55.1285 117.677 55.1285C115.909 55.1285 114.839 54.0626 114.839 51.9308C114.839 51.2338 114.839 46.5602 114.839 46.5602H113.4Z" fill="url(#paint0_linear)"/>
<path d="M69.5223 61.4419H68.741V62.1798H69.6046V62.3848H68.4531V60.376H69.5634V60.5809H68.741V61.2369H69.5223V61.4419ZM72.0719 62.3848L71.414 60.376H71.7018L72.0308 61.3599C72.113 61.6468 72.1953 61.8928 72.2364 62.0978C72.2775 61.8518 72.3598 61.6058 72.4831 61.3599L72.8121 60.376H73.1L72.3598 62.3848H72.0719ZM76.0197 61.4419H75.2384V62.1798H76.1019V62.3848H74.9505V60.376H76.0608V60.5809H75.2384V61.2369H76.0197V61.4419ZM78.1169 62.3848V60.376H78.4048L79.0628 61.4009C79.2273 61.6468 79.3506 61.8518 79.4329 62.0568C79.3917 61.7698 79.3917 61.5239 79.3917 61.2369V60.376H79.6385V62.3848H79.3917L78.7338 61.3599C78.6104 61.1139 78.4459 60.9089 78.3637 60.6629C78.3637 60.9089 78.3637 61.1549 78.3637 61.4829V62.3438H78.1169V62.3848ZM82.147 60.5809H81.5301V60.376H83.0517V60.5809H82.4348V62.3848H82.1881V60.5809H82.147ZM88.9322 61.5239C88.9322 61.2369 88.8911 60.9089 88.8911 60.6629C88.8088 60.9089 88.7266 61.1549 88.6443 61.4419L88.2742 62.4258H88.0686L87.7396 61.4419C87.6574 61.1549 87.5751 60.9089 87.4929 60.6629C87.4929 60.9089 87.4518 61.2369 87.4518 61.5648L87.4107 62.4258H87.1639L87.2873 60.417H87.6163L87.9452 61.4009C88.0275 61.6468 88.1097 61.8928 88.1509 62.0978C88.192 61.8928 88.2742 61.6878 88.3565 61.4009L88.7266 60.417H89.0556L89.1789 62.4258H88.9322V61.5239ZM91.6463 61.7698L91.4407 62.4258H91.1528L91.8519 60.417H92.1809L92.88 62.4258H92.5921L92.3865 61.7698H91.6463ZM92.3042 61.5648L92.0986 60.9909C92.0575 60.8679 92.0164 60.7449 91.9753 60.6219C91.9341 60.7449 91.9341 60.8679 91.893 60.9909L91.6874 61.5648H92.3042ZM94.8127 62.3848V60.376H95.1006L95.7585 61.4009C95.923 61.6468 96.0464 61.8518 96.1287 62.0568C96.0875 61.7698 96.0875 61.5239 96.0875 61.2369V60.376H96.3343V62.3848H96.0875L95.4296 61.3599C95.3062 61.1139 95.1417 60.9089 95.0595 60.6629C95.0595 60.9089 95.0595 61.1549 95.0595 61.4829V62.3438H94.8127V62.3848ZM98.8016 61.7698L98.596 62.4258H98.3081L99.0072 60.417H99.3362L100.035 62.4258H99.7474L99.5418 61.7698H98.8016ZM99.4596 61.5648L99.254 60.9909C99.2128 60.8679 99.1717 60.7449 99.1306 60.6219C99.0895 60.7449 99.0895 60.8679 99.0484 60.9909L98.8427 61.5648H99.4596ZM103.49 62.3028C103.366 62.3438 103.119 62.4258 102.873 62.4258C102.585 62.4258 102.297 62.3438 102.133 62.1388C101.968 61.9748 101.845 61.6878 101.845 61.4009C101.845 60.7859 102.256 60.335 102.955 60.335C103.202 60.335 103.366 60.376 103.448 60.417L103.366 60.6219C103.243 60.5809 103.119 60.5399 102.914 60.5399C102.42 60.5399 102.091 60.8269 102.091 61.3599C102.091 61.8928 102.379 62.1798 102.873 62.1798C103.037 62.1798 103.161 62.1388 103.243 62.1388V61.5239H102.832V61.3189H103.49V62.3028ZM106.574 61.4419H105.792V62.1798H106.656V62.3848H105.546V60.376H106.656V60.5809H105.834V61.2369H106.615V61.4419H106.574ZM110.398 61.5239C110.398 61.2369 110.357 60.9089 110.357 60.6629C110.275 60.9089 110.193 61.1549 110.11 61.4419L109.74 62.4258H109.535L109.206 61.4419C109.123 61.1549 109.041 60.9089 108.959 60.6629C108.959 60.9089 108.918 61.2369 108.918 61.5648L108.877 62.4258H108.63L108.753 60.417H109.082L109.411 61.4009C109.493 61.6468 109.576 61.8928 109.617 62.0978C109.658 61.8928 109.74 61.6878 109.822 61.4009L110.193 60.417H110.522L110.645 62.4258H110.398V61.5239ZM113.811 61.4419H113.03V62.1798H113.894V62.3848H112.742V60.376H113.853V60.5809H113.03V61.2369H113.811V61.4419ZM115.909 62.3848V60.376H116.196L116.854 61.4009C117.019 61.6468 117.142 61.8518 117.225 62.0568C117.183 61.7698 117.183 61.5239 117.183 61.2369V60.376H117.43V62.3848H117.183L116.525 61.3599C116.402 61.1139 116.238 60.9089 116.155 60.6629C116.155 60.9089 116.155 61.1549 116.155 61.4829V62.3438H115.909V62.3848ZM119.939 60.5809H119.322V60.376H120.843V60.5809H120.227V62.3848H119.939V60.5809Z" fill="white"/>
<path d="M94.9773 23.9712C123.146 23.9712 149.506 31.7195 172 45.2073C152.59 25.1191 125.244 12.5742 94.9773 12.5742C64.7521 12.5742 37.4056 25.1191 17.9546 45.2483C40.4487 31.7605 66.8083 23.9712 94.9773 23.9712Z" fill="white"/>
<defs>
<linearGradient id="paint0_linear" x1="94.8175" y1="55.3971" x2="94.8175" y2="46.7491" gradientUnits="userSpaceOnUse">
<stop stop-color="#B5B5B5"/>
<stop offset="1" stop-color="white"/>
</linearGradient>
</defs>
</svg>
